<svg width="42" height="42" viewBox="0 0 42 42" fill="none" xmlns="http://www.w3.org/2000/svg">
<rect width="42" height="42" rx="10" fill="white"/>
<path d="M35 20.4661C35 21.6005 34.8912 22.6883 34.6737 23.7295C34.4716 24.7706 34.1842 25.7419 33.8112 26.6432C33.4382 27.5445 32.9954 28.3603 32.4825 29.0907C31.9853 29.8211 31.4414 30.4349 30.8509 30.9322H28.45C29.0871 30.3572 29.6621 29.6968 30.1749 28.9508C30.6877 28.2205 31.1228 27.4435 31.4802 26.6199C31.8376 25.7963 32.1096 24.9416 32.2961 24.0558C32.4981 23.17 32.5991 22.2843 32.5991 21.3985V19.5337C32.5991 18.6479 32.4981 17.7622 32.2961 16.8764C32.1096 15.9906 31.8376 15.1359 31.4802 14.3123C31.1228 13.4887 30.6877 12.7117 30.1749 11.9813C29.6621 11.251 29.0871 10.5905 28.45 10H30.8509C31.4414 10.4973 31.9853 11.1111 32.4825 11.8415C32.9954 12.5718 33.4382 13.3877 33.8112 14.289C34.1842 15.1903 34.4716 16.1615 34.6737 17.2027C34.8912 18.2439 35 19.3317 35 20.4661Z" fill="black"/>
<path d="M18.0008 27.7154H15.3668V11.4452H22.3831C23.8438 11.4452 24.9938 11.8881 25.8329 12.7739C26.6721 13.6441 27.0916 14.8329 27.0916 16.3403C27.0916 17.5057 26.8197 18.477 26.2758 19.254C25.7474 20.0154 24.9627 20.5516 23.9215 20.8624L27.4413 27.7154H24.5043L21.2409 21.1421H18.0008V27.7154ZM22.1966 18.9276C22.8648 18.9276 23.3854 18.7567 23.7583 18.4148C24.1313 18.0574 24.3178 17.5524 24.3178 16.8997V15.7808C24.3178 15.1281 24.1313 14.6309 23.7583 14.289C23.3854 13.9316 22.8648 13.7529 22.1966 13.7529H18.0008V18.9276H22.1966Z" fill="black"/>
<path d="M7 20.4661C7 19.3317 7.10101 18.2439 7.30303 17.2027C7.52058 16.1615 7.81584 15.1903 8.1888 14.289C8.56175 13.3877 8.99687 12.5718 9.49415 11.8415C10.007 11.1111 10.5586 10.4973 11.1491 10H13.55C12.9129 10.5905 12.3379 11.251 11.8251 11.9813C11.3123 12.7117 10.8772 13.4887 10.5198 14.3123C10.1624 15.1359 9.88264 15.9906 9.68062 16.8764C9.49415 17.7622 9.40091 18.6479 9.40091 19.5337V21.3985C9.40091 22.2843 9.49415 23.17 9.68062 24.0558C9.88264 24.9416 10.1624 25.7963 10.5198 26.6199C10.8772 27.4435 11.3123 28.2205 11.8251 28.9508C12.3379 29.6968 12.9129 30.3572 13.55 30.9322H11.1491C10.5586 30.4349 10.007 29.8211 9.49415 29.0907C8.99687 28.3603 8.56175 27.5445 8.1888 26.6432C7.81584 25.7419 7.52058 24.7706 7.30303 23.7295C7.10101 22.6883 7 21.6005 7 20.4661Z" fill="black"/>
</svg>
